#N canvas 532 63 518 505 10;
#X floatatom 22 40 5 0 0 0 - - -;
#X obj 22 66 mtof;
#X obj 22 251 dac~;
#X obj 164 76 tabwrite~ sawtooth;
#X obj 164 46 metro 100;
#X obj 164 20 tgl 15 0 empty empty empty 17 7 0 10 -262144 -1 -1 0
1;
#N canvas 0 50 450 250 (subpatch) 0;
#X array sawtooth 100 float 5;
#A 0 0 0 0 0 0 0 0 0 0 0 0 0 0 0 0 0 0 0 0 0 0 0 0 0 0 0 0 0 0 0 0
0 0 0 0 0 0 0 0 0 0 0 0 0 0 0 0 0 0 0 0 0 0 0 0 0 0 0 0 0 0 0 0 0 0
0 0 0 0 0 0 0 0 0 0 0 0 0 0 0 0 0 0 0 0 0 0 0 0 0 0 0 0 0 0 0 0 0 0
0;
#X coords 0 1.5 99 -1 200 140 1 0 0;
#X restore 299 20 graph;
#X obj 22 96 phasor~;
#X obj 22 121 *~ 2;
#X obj 21 150 -~ 1;
#X obj 75 46 tgl 15 0 empty empty empty 17 7 0 10 -262144 -1 -1 0 1
;
#X obj 20 493 *~, f 4;
#X obj 19 525 dac~;
#X obj 18 390 mtof;
#X obj 91 403 tgl 15 0 empty empty empty 17 7 0 10 -262144 -1 -1 0
1;
#X floatatom 18 365 5 0 0 0 - - -;
#X floatatom 19 415 5 0 0 0 - - -;
#X obj 20 440 osc~ 100;
#X obj 22 16 r sawfreqNum;
#X obj 71 188 r sawonOff;
#X obj 75 76 s sawonOff;
#X obj 18 337 r sinefreqNum;
#X obj 91 439 s sineonOff;
#X obj 90 463 r sineonOff;
#X obj 236 240 mtof;
#X floatatom 236 213 5 0 0 0 - - -;
#X obj 236 262 phasor~;
#X obj 236 284 expr~ $v1 > 0.5;
#X obj 237 442 dac~;
#X obj 235 322 *~ 2;
#X obj 235 362 -~ 1;
#X obj 236 401 *~;
#X obj 236 184 r sqrfreqNum;
#X obj 285 380 r sqronOff;
#X obj 332 342 s sqronOff;
#X obj 330 311 tgl 15 0 empty empty empty 17 7 0 10 -262144 -1 -1 0
1;
#X obj 176 171 vsl 15 50 0 0.5 0 0 empty empty empty 0 -9 0 10 -262144
-1 -1 0 1;
#X obj 23 217 *~;
#X obj 78 110 r sawvolNum;
#X obj 22 182 *~;
#X floatatom 77 137 5 0 100 0 - - -;
#X obj 4 126;
#X obj 76 166 *~ 0.01;
#X obj 20 466 *~ 0.8;
#X obj -3 349;
#X connect 0 0 1 0;
#X connect 1 0 7 0;
#X connect 4 0 3 0;
#X connect 5 0 4 0;
#X connect 7 0 8 0;
#X connect 8 0 9 0;
#X connect 9 0 39 0;
#X connect 10 0 20 0;
#X connect 11 0 12 0;
#X connect 11 0 12 1;
#X connect 13 0 16 0;
#X connect 14 0 22 0;
#X connect 15 0 13 0;
#X connect 16 0 17 0;
#X connect 17 0 43 0;
#X connect 18 0 0 0;
#X connect 19 0 37 1;
#X connect 21 0 15 0;
#X connect 23 0 11 1;
#X connect 24 0 26 0;
#X connect 25 0 24 0;
#X connect 26 0 27 0;
#X connect 27 0 29 0;
#X connect 29 0 30 0;
#X connect 30 0 31 0;
#X connect 31 0 28 0;
#X connect 31 0 28 1;
#X connect 32 0 25 0;
#X connect 33 0 31 1;
#X connect 35 0 34 0;
#X connect 37 0 2 0;
#X connect 37 0 2 1;
#X connect 38 0 40 0;
#X connect 39 0 37 0;
#X connect 40 0 42 0;
#X connect 42 0 39 1;
#X connect 43 0 11 0;
